<svg width="35" height="35" viewBox="0 0 35 35" fill="none" xmlns="http://www.w3.org/2000/svg">
<circle cx="17.2472" cy="17.2472" r="17.2472" fill="#F6DE0B"/>
<path d="M24.5325 22.4675L21.9825 19.925C22.8052 18.8768 23.2517 17.5825 23.25 16.25C23.25 15.0633 22.8981 13.9033 22.2388 12.9166C21.5795 11.9299 20.6425 11.1609 19.5461 10.7067C18.4497 10.2526 17.2433 10.1338 16.0795 10.3653C14.9156 10.5968 13.8465 11.1682 13.0074 12.0074C12.1682 12.8465 11.5968 13.9156 11.3653 15.0795C11.1338 16.2433 11.2526 17.4497 11.7067 18.5461C12.1609 19.6425 12.9299 20.5795 13.9166 21.2388C14.9033 21.8981 16.0633 22.25 17.25 22.25C18.5825 22.2517 19.8768 21.8052 20.925 20.9825L23.4675 23.5325C23.5372 23.6028 23.6202 23.6586 23.7116 23.6967C23.803 23.7347 23.901 23.7544 24 23.7544C24.099 23.7544 24.197 23.7347 24.2884 23.6967C24.3798 23.6586 24.4628 23.6028 24.5325 23.5325C24.6028 23.4628 24.6586 23.3798 24.6967 23.2884C24.7347 23.197 24.7544 23.099 24.7544 23C24.7544 22.901 24.7347 22.803 24.6967 22.7116C24.6586 22.6202 24.6028 22.5372 24.5325 22.4675ZM12.75 16.25C12.75 15.36 13.0139 14.49 13.5084 13.7499C14.0029 13.0099 14.7057 12.4331 15.5279 12.0925C16.3502 11.752 17.255 11.6628 18.1279 11.8365C19.0008 12.0101 19.8026 12.4387 20.432 13.068C21.0613 13.6974 21.4899 14.4992 21.6635 15.3721C21.8372 16.245 21.7481 17.1498 21.4075 17.9721C21.0669 18.7943 20.4901 19.4971 19.7501 19.9916C19.01 20.4861 18.14 20.75 17.25 20.75C16.0565 20.75 14.9119 20.2759 14.068 19.432C13.2241 18.5881 12.75 17.4435 12.75 16.25Z" fill="#FAFAFA"/>
</svg>
