<svg width="17" height="11" viewBox="0 0 17 11" fill="none" xmlns="http://www.w3.org/2000/svg">
<path fill-rule="evenodd" clip-rule="evenodd" d="M0.987305 5.26758C0.987305 5.06804 1.0901 4.87667 1.27307 4.73557C1.45604 4.59447 1.70421 4.5152 1.96297 4.5152H13.267L9.07753 1.28601C8.89433 1.14473 8.79141 0.953121 8.79141 0.753326C8.79141 0.553532 8.89433 0.36192 9.07753 0.220644C9.26074 0.0793682 9.50922 0 9.76831 0C10.0274 0 10.2759 0.0793682 10.4591 0.220644L16.3131 4.7349C16.4039 4.80479 16.476 4.88781 16.5252 4.97922C16.5744 5.07062 16.5997 5.16862 16.5997 5.26758C16.5997 5.36654 16.5744 5.46453 16.5252 5.55594C16.476 5.64735 16.4039 5.73037 16.3131 5.80026L10.4591 10.3145C10.2759 10.4558 10.0274 10.5352 9.76831 10.5352C9.50922 10.5352 9.26074 10.4558 9.07753 10.3145C8.89433 10.1732 8.79141 9.98163 8.79141 9.78183C8.79141 9.58204 8.89433 9.39043 9.07753 9.24915L13.267 6.01995H1.96297C1.70421 6.01995 1.45604 5.94069 1.27307 5.79959C1.0901 5.65849 0.987305 5.46712 0.987305 5.26758Z" fill="white"/>
</svg>
